<?xml version="1.0" encoding="UTF-8"?>
<svg id="Calque_1" data-name="Calque 1" xmlns="http://www.w3.org/2000/svg" version="1.1" viewBox="0 0 500 500">
  <defs>
    <style>
      .cls-1 {
        stroke-width: 0px;
      }

      .cls-1, .cls-2, .cls-3 {
        fill: #fff;
      }

      .cls-2 {
        stroke-width: 10px;
      }

      .cls-2, .cls-3 {
        stroke: #fff;
      }

      .cls-3 {
        stroke-miterlimit: 4;
        stroke-width: 10px;
      }
    </style>
  </defs>
  <path class="cls-1" d="M177.1,206.2c3.2,0,6.3.5,9.3,1.4,3.1.9,5.3,1.8,6.8,2.8l2.1,1.4-5.4,10.7c-.4-.3-1-.7-1.8-1.1-.8-.5-2.2-1.1-4.3-1.8-2.1-.8-4-1.1-5.9-1.1s-4,.5-5.2,1.4c-1.2.9-1.8,2.2-1.8,3.8s.3,1.6.9,2.3c.6.7,1.6,1.4,2.9,2.2,1.4.8,2.6,1.4,3.6,1.9,1,.5,2.7,1.2,4.9,2.1,3.8,1.6,7.1,3.8,9.8,6.6,2.7,2.8,4,5.9,4,9.5s-.6,6.3-1.8,8.9c-1.2,2.5-2.9,4.5-5,5.9-2.1,1.4-4.5,2.5-7,3.2-2.6.7-5.3,1-8.3,1s-5.1-.3-7.6-.8c-2.5-.5-4.5-1.2-6.2-1.9-1.7-.8-3.2-1.6-4.5-2.3-1.3-.8-2.3-1.4-2.9-1.9l-.9-.8,6.7-11.3c.6.5,1.4,1.1,2.4,1.8,1,.7,2.8,1.7,5.3,3,2.6,1.2,4.8,1.9,6.8,1.9,5.7,0,8.5-1.9,8.5-5.8s-.2-1.5-.6-2.2c-.4-.7-1.1-1.4-2.1-2.1-1-.7-1.9-1.2-2.7-1.6-.8-.4-2.1-1-3.9-1.9-1.8-.8-3.1-1.5-4-1.9-3.6-1.8-6.3-4-8.3-6.6-1.9-2.6-2.9-5.5-2.9-8.5,0-5.3,1.9-9.6,5.9-13,3.9-3.4,8.4-5,13.4-5Z"/>
  <path class="cls-1" d="M210.8,229.7v36.6h-13.4v-58.9h13.4l23.4,36.6h.1v-36.6h13.4v58.9h-13.4l-23.4-36.6h-.1Z"/>
  <path class="cls-1" d="M284,207.3v11.8h-20.3v11.7h19.4v11.8h-19.4v11.9h20.3v11.8h-33.7v-58.9h33.7Z"/>
  <path class="cls-1" d="M334.3,266.2l-2.8-34.9h-.4l-12.1,34.6h-8l-12.1-34.6h-.4l-2.8,34.9h-13.4l5.3-58.9h14.3l13.1,34,13.1-34h14.3l5.3,58.9h-13.4Z"/>
  <path class="cls-2" d="M120.8,309.1h84.4"/>
  <path class="cls-3" d="M125.8,228.6v82.5"/>
  <path class="cls-2" d="M378,190.9h-84.4"/>
  <path class="cls-3" d="M373,271.3v-82.5"/>
</svg>